<?xml version="1.0" standalone="no"?>
<!DOCTYPE svg PUBLIC "-//W3C//DTD SVG 20010904//EN"
 "http://www.w3.org/TR/2001/REC-SVG-20010904/DTD/svg10.dtd">
<svg version="1.0" xmlns="http://www.w3.org/2000/svg"
 width="700.000000pt" height="700.000000pt" viewBox="0 0 700.000000 700.000000"
 preserveAspectRatio="xMidYMid meet">
<metadata>
Created by potrace 1.14, written by Peter Selinger 2001-2017
</metadata>
<g transform="translate(0.000000,700.000000) scale(0.100000,-0.100000)"
fill="#000000" stroke="none">
<path d="M3103 6394 c-212 -87 -251 -364 -70 -500 69 -52 103 -59 312 -61 256
-2 288 -4 195 -13 -219 -21 -416 -64 -610 -132 -755 -265 -1345 -852 -1614
-1606 -43 -121 -92 -310 -111 -427 -3 -22 -10 -61 -14 -86 -4 -25 -6 -68 -3
-95 19 -235 304 -347 480 -189 57 51 86 106 98 185 4 30 8 57 9 60 3 12 19 96
20 110 3 16 23 92 50 185 35 117 185 444 215 465 4 3 13 16 20 30 38 71 166
228 280 341 315 313 753 524 1190 575 86 10 398 11 480 1 785 -96 1439 -628
1698 -1382 45 -131 83 -311 98 -470 9 -101 3 -357 -11 -447 -4 -24 -9 -56 -11
-73 -12 -74 -47 -215 -73 -294 -235 -704 -833 -1231 -1551 -1366 -14 -3 -36
-7 -50 -10 -30 -6 -83 -13 -165 -21 -33 -3 -429 -7 -880 -8 l-820 -1 -50 -25
c-112 -54 -169 -144 -169 -264 0 -120 63 -219 174 -270 44 -20 56 -21 875 -20
832 0 956 3 1105 30 19 3 46 7 60 9 130 18 440 113 590 181 311 142 566 318
795 548 218 219 356 410 493 681 214 424 309 912 269 1390 -41 495 -220 962
-521 1365 -42 56 -62 80 -155 184 -406 456 -1009 768 -1626 841 -11 1 -40 3
-64 4 -24 0 -42 4 -38 7 3 4 104 7 224 8 243 2 270 8 345 77 151 139 109 396
-80 481 -46 21 -58 22 -690 23 l-643 2 -56 -23z"/>
<path d="M3694 4649 c-59 -22 -117 -68 -149 -118 -45 -72 -47 -107 -43 -776 3
-623 3 -630 25 -670 73 -138 219 -198 363 -150 89 30 171 124 187 217 4 18 6
315 6 659 l1 626 -27 54 c-29 60 -57 93 -102 125 -71 49 -180 63 -261 33z"/>
<path d="M820 2910 c-88 -16 -175 -85 -212 -168 -27 -63 -28 -169 0 -233 26
-59 84 -118 147 -149 l50 -25 780 -1 c730 -1 784 0 840 17 65 20 118 62 158
126 89 140 27 337 -129 413 l-49 24 -775 1 c-426 0 -791 -2 -810 -5z"/>
<path d="M1429 2039 c-65 -7 -149 -49 -186 -94 -138 -162 -75 -402 122 -470
46 -16 118 -17 825 -17 839 0 815 -1 893 54 165 118 164 365 -2 476 -84 56
-66 54 -860 56 -405 0 -761 -2 -792 -5z"/>
</g>
</svg>
